<?xml version="1.0" encoding="UTF-8"?>
<svg width="202px" height="61px" viewBox="0 0 202 61" version="1.1" xmlns="http://www.w3.org/2000/svg" xmlns:xlink="http://www.w3.org/1999/xlink">
    <!-- Generator: Sketch 49.3 (51167) - http://www.bohemiancoding.com/sketch -->
    <title>Group</title>
    <desc>Created with Sketch.</desc>
    <defs>
        <polygon id="path-1" points="0.185354386 0.328757895 60.8562754 0.328757895 60.8562754 61 0.185354386 61"></polygon>
        <path d="M30.5208684,0.32854386 C13.7672719,0.32854386 0.185140351,13.9101404 0.185140351,30.6642719 C0.185140351,47.4178684 13.7672719,61 30.5208684,61 C47.275,61 60.8565965,47.4178684 60.8565965,30.6642719 C60.8565965,13.9101404 47.275,0.32854386 30.5208684,0.32854386 Z" id="path-3"></path>
    </defs>
    <g id="Page-1" stroke="none" stroke-width="1" fill="none" fill-rule="evenodd">
        <g id="NG---01" transform="translate(-857.000000, -463.000000)">
            <g id="Group" transform="translate(857.000000, 463.000000)">
                <path d="M76.33,18 L79.81,18 L91.06,33.09 L91.06,18 L94.54,18 L94.54,39 L91.06,39 L79.87,23.94 L79.87,39 L76.33,39 L76.33,18 Z M100.09,18 L103.63,18 L103.63,39 L100.09,39 L100.09,18 Z M123.52,34.53 L123.52,28.68 L126.61,28.68 L126.61,36.42 C124.48,38.04 121.33,39.15 118.45,39.15 C112.24,39.15 107.41,34.5 107.41,28.5 C107.41,22.5 112.3,17.91 118.66,17.91 C121.66,17.91 124.66,19.05 126.73,20.85 L124.72,23.46 C123.1,21.96 120.85,21.06 118.66,21.06 C114.37,21.06 111.01,24.33 111.01,28.5 C111.01,32.7 114.4,35.97 118.69,35.97 C120.25,35.97 122.02,35.43 123.52,34.53 Z M131.62,18 L146.62,18 L146.62,21.18 L135.16,21.18 L135.16,26.88 L145.42,26.88 L145.42,30.03 L135.16,30.03 L135.16,35.82 L146.98,35.82 L146.98,39 L131.62,39 L131.62,18 Z M168.64,39 L164.62,39 L160.78,32.64 C160.48,32.67 160.15,32.67 159.82,32.67 L154.84,32.67 L154.84,39 L151.3,39 L151.3,18 L159.82,18 C165.19,18 168.28,20.61 168.28,25.17 C168.28,28.53 166.72,30.9 163.93,31.98 L168.64,39 Z M154.84,29.49 L159.82,29.49 C163.06,29.49 164.92,28.11 164.92,25.26 C164.92,22.5 163.06,21.18 159.82,21.18 L154.84,21.18 L154.84,29.49 Z M172.99,18 L176.53,18 L176.53,39 L172.99,39 L172.99,18 Z M197.62,39 L195.61,34.26 L185.02,34.26 L183.01,39 L179.32,39 L188.59,18 L192.22,18 L201.4,39 L197.62,39 Z M186.34,31.11 L194.26,31.11 L190.3,21.78 L186.34,31.11 Z" id="NIGERIA" fill="#FFFFFF"></path>
                <g id="Page-1">
                    <g id="Group-3">
                        <mask id="mask-2" fill="white">
                            <use xlink:href="#path-1"></use>
                        </mask>
                        <g id="Clip-2"></g>
                        <path d="M30.5210825,0.328757895 C47.275214,0.328757895 60.8562754,13.9103544 60.8562754,30.6639509 C60.8562754,47.4180825 47.275214,61.000214 30.5210825,61.000214 C13.7669509,61.000214 0.185354386,47.4180825 0.185354386,30.6639509 C0.185354386,13.9103544 13.7669509,0.328757895 30.5210825,0.328757895" id="Fill-1" fill="#CCCCCC" mask="url(#mask-2)"></path>
                    </g>
                    <g id="Group-8">
                        <mask id="mask-4" fill="white">
                            <use xlink:href="#path-3"></use>
                        </mask>
                        <g id="Clip-5"></g>
                        <polygon id="Fill-4" fill="#1B7F47" mask="url(#mask-4)" points="-14.9824561 61 15.3527368 61 15.3527368 0.32854386 -14.9824561 0.32854386"></polygon>
                        <polygon id="Fill-6" fill="#F0F0F0" mask="url(#mask-4)" points="15.3532719 61 45.6884649 61 45.6884649 0.32854386 15.3532719 0.32854386"></polygon>
                        <polygon id="Fill-7" fill="#1B7F47" mask="url(#mask-4)" points="45.6884649 61 76.024193 61 76.024193 0.32854386 45.6884649 0.32854386"></polygon>
                    </g>
                </g>
            </g>
        </g>
    </g>
</svg>